<?xml version="1.0" encoding="UTF-8"?>
<svg version="1.1" xmlns="http://www.w3.org/2000/svg" width="500" height="500">
<path class="logo-path" pathLength="1" d="M0 0 C0.92490234 -0.00386719 1.84980469 -0.00773437 2.80273438 -0.01171875 C12.13531457 0.00136125 20.94370178 0.75265773 29.9375 3.3125 C30.71488525 3.53317139 31.49227051 3.75384277 32.29321289 3.98120117 C51.46914894 9.65877056 67.24230575 21.65769473 77.33984375 38.921875 C85.37568136 53.86379528 87.97223976 72.23604097 83.8125 88.875 C80.20538832 99.69633503 74.59715993 110.47291168 65.0625 117.125 C64.4025 117.125 63.7425 117.125 63.0625 117.125 C64.43590027 119.87180054 66.04988257 120.21677238 68.8125 121.5 C72.62700064 123.35260131 75.98283873 125.14799411 79.0625 128.125 C79.0625 128.785 79.0625 129.445 79.0625 130.125 C79.68125 130.351875 80.3 130.57875 80.9375 130.8125 C83.67660209 132.50429835 84.11274472 134.11744161 85.0625 137.125 C85.7225 137.125 86.3825 137.125 87.0625 137.125 C93.55518644 148.96138624 99.94835838 162.21292999 98.0625 176.125 C96.35994233 177.82755767 94.16896664 177.27001494 91.84008789 177.28613281 C90.7254567 177.29574036 89.6108255 177.3053479 88.4624176 177.31524658 C86.64217323 177.3216214 86.64217323 177.3216214 84.78515625 177.328125 C83.54833603 177.33382507 82.31151581 177.33952515 81.03721619 177.34539795 C78.4152004 177.35486479 75.79317263 177.36138858 73.17114258 177.36523438 C70.47536782 177.36963245 67.77991073 177.38357047 65.08422852 177.40625 C61.21360455 177.43657625 57.34338548 177.4472673 53.47265625 177.453125 C52.26118423 177.4654718 51.04971222 177.4778186 49.80152893 177.49053955 C48.68374557 177.48753845 47.56596222 177.48453735 46.41430664 177.48144531 C44.93324181 177.48691376 44.93324181 177.48691376 43.42225647 177.49249268 C42.64353683 177.37122009 41.8648172 177.24994751 41.0625 177.125 C38.97952703 174.00054055 38.53762585 172.0677775 37.8125 168.4375 C36.01303944 161.16065705 33.6910531 156.45727675 27.28515625 152.33984375 C16.91994318 146.81085872 7.57673554 146.98346882 -3.9375 147.0625 C-5.81501953 147.06926758 -5.81501953 147.06926758 -7.73046875 147.07617188 C-10.79952941 147.08788585 -13.86848907 147.10428927 -16.9375 147.125 C-17.28006836 147.79031738 -17.62263672 148.45563477 -17.97558594 149.14111328 C-19.54256281 152.1793132 -21.11497794 155.21466673 -22.6875 158.25 C-23.22632813 159.29671875 -23.76515625 160.3434375 -24.3203125 161.421875 C-30.88671875 174.07421875 -30.88671875 174.07421875 -33.9375 177.125 C-35.96244231 177.21909479 -37.9906987 177.24243122 -40.01782227 177.23852539 C-41.96973228 177.23841209 -41.96973228 177.23841209 -43.96107483 177.23829651 C-45.39201902 177.23318909 -46.82296282 177.22797308 -48.25390625 177.22265625 C-49.7097926 177.22079203 -51.16567957 177.21936815 -52.62156677 177.21836853 C-56.46029379 177.21454365 -60.29898319 177.20471364 -64.13769531 177.19366455 C-68.05207816 177.18344978 -71.96646706 177.17887077 -75.88085938 177.17382812 C-83.56642343 177.16309134 -91.25195645 177.14601529 -98.9375 177.125 C-98.3780777 173.53576102 -97.90691487 170.54596934 -96.125 167.36328125 C-95.77179688 166.71939453 -95.41859375 166.07550781 -95.0546875 165.41210938 C-94.68601562 164.76048828 -94.31734375 164.10886719 -93.9375 163.4375 C-91.11125163 158.4336063 -91.11125163 158.4336063 -88.9375 153.125 C-90.73821205 153.12833092 -90.73821205 153.12833092 -92.57530212 153.13172913 C-103.86227295 153.15195882 -115.14924013 153.1669713 -126.43622494 153.17681217 C-132.23963613 153.18204144 -138.04303275 153.18913987 -143.84643555 153.20043945 C-149.44200853 153.21126678 -155.03756745 153.2172765 -160.6331501 153.21987724 C-162.77308944 153.22173177 -164.91302796 153.22535291 -167.05296135 153.23073006 C-170.03914966 153.23793844 -173.02527907 153.23899103 -176.01147461 153.23852539 C-176.90555023 153.24212067 -177.79962585 153.24571594 -178.72079468 153.24942017 C-184.82344784 153.23905216 -184.82344784 153.23905216 -185.9375 152.125 C-186.03090434 150.49825222 -186.05495171 148.86745949 -186.05102539 147.23803711 C-186.05094986 146.19703354 -186.05087433 145.15602997 -186.05079651 144.08348083 C-186.04563522 142.9512056 -186.04047394 141.81893036 -186.03515625 140.65234375 C-186.0337413 139.49956436 -186.03232635 138.34678497 -186.03086853 137.15907288 C-186.02525005 133.46018936 -186.01269442 129.76136536 -186 126.0625 C-185.99498738 123.56184983 -185.99042406 121.06119871 -185.98632812 118.56054688 C-185.97527462 112.41534412 -185.95851852 106.27017631 -185.9375 100.125 C-184.94505028 100.12261165 -183.95260056 100.12022329 -182.9300766 100.11776257 C-158.77618802 100.05895537 -134.6223991 99.98306492 -110.4686203 99.88928509 C-98.78800865 99.84432883 -87.10742748 99.80491371 -75.42675781 99.77856445 C-65.24531464 99.75558307 -55.06396793 99.72218335 -44.88260126 99.67629844 C-39.49216946 99.65236825 -34.10183319 99.63363808 -28.71134949 99.62738609 C-23.63553518 99.6213344 -18.55996529 99.60133118 -13.48424149 99.57072449 C-11.62350283 99.56194568 -9.76273224 99.55822136 -7.90197372 99.55999184 C-5.35587697 99.56164921 -2.81052124 99.54490619 -0.26452637 99.52372742 C0.83278549 99.53099878 0.83278549 99.53099878 1.95226526 99.53841704 C7.24347274 99.46607932 11.15922236 98.09734919 16.0625 96.125 C17.0525 96.125 18.0425 96.125 19.0625 96.125 C19.0625 95.465 19.0625 94.805 19.0625 94.125 C19.825625 93.568125 20.58875 93.01125 21.375 92.4375 C25.70895588 88.70828215 26.88850799 84.70503555 27.49609375 79.1875 C27.51842478 77.83351685 27.5193571 76.47902894 27.5 75.125 C27.49677734 74.42165527 27.49355469 73.71831055 27.49023438 72.99365234 C27.34265381 67.53444352 26.32587532 64.40818011 23.0625 60.125 C23.0625 59.465 23.0625 58.805 23.0625 58.125 C21.72976889 57.45713024 20.39629215 56.79074824 19.0625 56.125 C18.04736328 55.59519531 18.04736328 55.59519531 17.01171875 55.0546875 C8.05619517 50.87853661 -2.13346124 50.42404532 -11.5 53.6875 C-17.0882618 56.30961286 -20.41808799 60.23088189 -23.25 65.625 C-24.05758083 68.29072349 -24.05758083 68.29072349 -24.3125 71.8125 C-24.9375 75.125 -24.9375 75.125 -26.6383667 76.32357788 C-29.36328784 77.27341932 -31.46366796 77.32765963 -34.34863281 77.26025391 C-35.42945129 77.24008209 -36.51026978 77.21991028 -37.62384033 77.1991272 C-38.78437927 77.16693085 -39.94491821 77.1347345 -41.140625 77.1015625 C-42.33355164 77.07653656 -43.52647827 77.05151062 -44.7555542 77.02572632 C-48.56649246 76.9435416 -52.3769114 76.84694445 -56.1875 76.75 C-58.7708121 76.691759 -61.35414553 76.63445575 -63.9375 76.578125 C-70.271121 76.43796482 -76.60437556 76.28596954 -82.9375 76.125 C-82.95654481 74.70749124 -82.97001555 73.28990702 -82.98120117 71.87231445 C-82.99336922 70.68820732 -82.99336922 70.68820732 -83.00578308 69.48017883 C-82.59427947 55.28684461 -75.53388937 39.12491386 -66.9375 28.125 C-66.2775 28.125 -65.6175 28.125 -64.9375 28.125 C-64.68097656 27.54492188 -64.42445313 26.96484375 -64.16015625 26.3671875 C-57.80678047 14.71594886 -43.31882511 7.74856605 -31.21875 3.9609375 C-20.69974418 0.97684095 -10.89471891 -0.04536316 0 0 Z " fill="#F8F8F8" transform="translate(295.9375,65.875)"/>
<path class="logo-path" pathLength="1" d="M0 0 C0.85602572 -0.00085442 1.71205144 -0.00170885 2.59401733 -0.00258917 C5.47300301 -0.00424113 8.3519309 0.0012728 11.23091125 0.00672913 C13.29044086 0.00701108 15.34997057 0.00685309 17.40950012 0.00628662 C23.01039228 0.00599899 28.61126314 0.01189027 34.21215034 0.01886058 C40.06181211 0.02509973 45.91147433 0.02569836 51.76113892 0.02688599 C62.8426999 0.02999764 73.92425105 0.03820881 85.0058077 0.04823548 C97.6199044 0.05940175 110.23400156 0.06490836 122.84810197 0.06993091 C148.80033618 0.08039154 174.75256164 0.09798779 200.70478821 0.12025452 C201.68397596 3.1958241 201.85468801 3.80617875 200.39228821 6.87025452 C199.83541321 7.61275452 199.27853821 8.35525452 198.70478821 9.12025452 C198.04478821 9.12025452 197.38478821 9.12025452 196.70478821 9.12025452 C196.6467804 9.66681702 196.58877258 10.21337952 196.52900696 10.77650452 C195.34737674 14.13659045 193.02255544 16.19750597 190.51728821 18.62025452 C190.04742493 19.09334045 189.57756165 19.56642639 189.09346008 20.05384827 C180.90415845 28.12025452 180.90415845 28.12025452 176.70478821 28.12025452 C176.70478821 28.78025452 176.70478821 29.44025452 176.70478821 30.12025452 C143.80646688 46.31915133 108.68546092 48.65438055 73.70478821 37.12025452 C69.22943752 35.41174082 64.95653643 33.32130098 60.70478821 31.12025452 C58.70525397 30.11932353 56.70537888 29.11907231 54.70478821 28.12025452 C54.70478821 27.46025452 54.70478821 26.80025452 54.70478821 26.12025452 C53.96228821 25.83150452 53.21978821 25.54275452 52.45478821 25.24525452 C49.70478821 24.12025452 49.70478821 24.12025452 47.51728821 22.99525452 C45.74004687 21.97533816 45.74004687 21.97533816 43.70478821 22.12025452 C43.57282043 22.70419983 43.44085266 23.28814514 43.30488586 23.88978577 C42.33510137 27.49432245 40.67370921 30.7546918 39.07978821 34.12025452 C38.7207843 34.88136536 38.3617804 35.6424762 37.99189758 36.426651 C35.41825725 41.80599051 32.56000982 46.93327103 29.48213196 52.04212952 C27.09425222 56.17762233 24.98402355 60.43074016 22.89619446 64.72401428 C19.35261583 71.97059439 15.51267163 78.9804731 11.70478821 86.12025452 C46.02478821 86.45025452 80.34478821 86.78025452 115.70478821 87.12025452 C115.73572571 100.45431702 115.73572571 100.45431702 115.76728821 114.05775452 C115.77639221 116.8678302 115.78549622 119.67790588 115.7948761 122.57313538 C115.79779504 124.78545585 115.80034365 126.99777686 115.80244446 129.21009827 C115.80756042 130.37093933 115.81267639 131.5317804 115.81794739 132.72779846 C115.81812866 134.37213867 115.81812866 134.37213867 115.8183136 136.04969788 C115.82053421 137.00678146 115.82275482 137.96386505 115.82504272 138.94995117 C115.70478821 141.12025452 115.70478821 141.12025452 114.70478821 142.12025452 C112.1502165 142.21801701 109.6227036 142.25020598 107.06768799 142.24050903 C106.2582902 142.24136346 105.4488924 142.24221788 104.61496741 142.2430982 C101.88178349 142.24475548 99.1486599 142.2392276 96.41548157 142.23377991 C94.46461997 142.23349806 92.51375826 142.23365572 90.56289673 142.23422241 C85.24906662 142.23451049 79.93525887 142.22861205 74.62143397 142.22164845 C69.07472136 142.21541668 63.5280083 142.21481126 57.98129272 142.21362305 C47.46986196 142.21050921 36.95844154 142.20229512 26.44701535 142.19227356 C14.48349686 142.18111405 2.51997789 142.17560238 -9.44354451 142.17057812 C-34.06077268 142.16011254 -58.67799166 142.14251209 -83.29521179 142.12025452 C-82.82041285 140.67238338 -82.34360189 139.22517194 -81.86593628 137.77824402 C-81.60062701 136.97225832 -81.33531775 136.16627262 -81.0619688 135.33586311 C-80.24571365 132.97722548 -79.28036842 130.80893969 -78.09599304 128.61244202 C-77.695578 127.86132141 -77.29516296 127.11020081 -76.88261414 126.33631897 C-76.46189636 125.5637677 -76.04117859 124.79121643 -75.60771179 123.99525452 C-75.16636902 123.17049622 -74.72502625 122.34573792 -74.27030945 121.49598694 C-72.95165575 119.03391355 -71.62432243 116.57669494 -70.29521179 114.12025452 C-68.91690937 111.55951687 -67.54246155 108.9967401 -66.17021179 106.43275452 C-65.84544861 105.82745911 -65.52068542 105.2221637 -65.18608093 104.598526 C-62.88712427 100.29193261 -60.70184198 95.93701735 -58.54521179 91.55775452 C-55.29205321 84.95288168 -51.79120581 78.50257034 -48.23271179 72.05775452 C-43.54462204 63.56059184 -39.2216307 54.99617333 -35.29521179 46.12025452 C-34.63521179 46.12025452 -33.97521179 46.12025452 -33.29521179 46.12025452 C-33.16324402 45.5363092 -33.03127625 44.95236389 -32.89530945 44.35072327 C-31.92552305 40.74617951 -30.2641038 37.48583878 -28.67021179 34.12025452 C-28.31265808 33.36204407 -27.95510437 32.60383362 -27.5867157 31.82264709 C-24.97848766 26.37028539 -22.09518023 21.15667509 -18.95927429 15.98744202 C-16.59891704 11.9205354 -14.62485642 7.68810846 -12.65458679 3.42103577 C-9.9456366 -1.16394028 -4.75944684 -0.01723311 0 0 Z " fill="#FAF9F9" transform="translate(182.2952117919922,285.87974548339844)"/>
<path class="logo-path" pathLength="1" d="M0 0 C3.82825694 0.03430338 3.82825694 0.03430338 6.125 2.1875 C7.125 4.3125 7.125 4.3125 7.125 6.3125 C7.785 6.3125 8.445 6.3125 9.125 6.3125 C10.4140625 7.84375 10.4140625 7.84375 11.75 9.8125 C12.19601563 10.4621875 12.64203125 11.111875 13.1015625 11.78125 C13.60816406 12.53921875 13.60816406 12.53921875 14.125 13.3125 C15.06824258 9.00053391 15.60541715 4.69184119 16.125 0.3125 C18.765 0.3125 21.405 0.3125 24.125 0.3125 C24.125 9.8825 24.125 19.4525 24.125 29.3125 C15.125 29.3125 15.125 29.3125 12.8203125 27.484375 C12.30210937 26.68515625 11.78390625 25.8859375 11.25 25.0625 C10.71632812 24.27359375 10.18265625 23.4846875 9.6328125 22.671875 C9.13523438 21.89328125 8.63765625 21.1146875 8.125 20.3125 C7.135 18.9925 6.145 17.6725 5.125 16.3125 C5.125 20.6025 5.125 24.8925 5.125 29.3125 C-1.80859375 29.41015625 -1.80859375 29.41015625 -3.875 29.3125 C-5.67779191 27.50970809 -5.00536605 24.77202299 -5.0078125 22.34375 C-5.00910156 21.13332031 -5.01039063 19.92289062 -5.01171875 18.67578125 C-5.00785156 17.40089844 -5.00398437 16.12601562 -5 14.8125 C-5.00386719 13.53761719 -5.00773438 12.26273437 -5.01171875 10.94921875 C-5.01042969 9.73878906 -5.00914062 8.52835937 -5.0078125 7.28125 C-5.00668457 6.16169922 -5.00555664 5.04214844 -5.00439453 3.88867188 C-4.79715839 -0.23728232 -4.34462267 0.3503728 0 0 Z " fill="#E1DFDF" transform="translate(201.875,247.6875)"/>
<path class="logo-path" pathLength="1" d="M0 0 C1.134375 0.020625 2.26875 0.04125 3.4375 0.0625 C3.7675 1.0525 4.0975 2.0425 4.4375 3.0625 C5.0975 3.0625 5.7575 3.0625 6.4375 3.0625 C7.0975 4.7125 7.7575 6.3625 8.4375 8.0625 C9.0975 8.0625 9.7575 8.0625 10.4375 8.0625 C11.0975 9.7125 11.7575 11.3625 12.4375 13.0625 C13.0975 13.0625 13.7575 13.0625 14.4375 13.0625 C14.52837891 11.78052734 14.52837891 11.78052734 14.62109375 10.47265625 C14.70488281 9.36792969 14.78867187 8.26320313 14.875 7.125 C14.95621094 6.02285156 15.03742188 4.92070312 15.12109375 3.78515625 C15.4375 1.0625 15.4375 1.0625 16.4375 0.0625 C19.9375 -0.0625 19.9375 -0.0625 23.4375 0.0625 C24.4375 1.0625 24.4375 1.0625 24.55102539 3.74633789 C24.54578857 4.91414795 24.54055176 6.08195801 24.53515625 7.28515625 C24.53193359 8.54521484 24.52871094 9.80527344 24.52539062 11.10351562 C24.51703403 12.44401109 24.50856907 13.78450588 24.5 15.125 C24.4949866 16.46939942 24.49042342 17.8138006 24.48632812 19.15820312 C24.47449488 22.45967941 24.45800971 25.76106803 24.4375 29.0625 C21.63166085 29.63542004 19.27043739 30.11302802 16.4375 30.0625 C14.01171875 28.33203125 14.01171875 28.33203125 12.125 25.875 C11.48949219 25.07707031 10.85398437 24.27914063 10.19921875 23.45703125 C9.61785156 22.66683594 9.03648437 21.87664062 8.4375 21.0625 C7.4475 19.7425 6.4575 18.4225 5.4375 17.0625 C5.1075 21.0225 4.7775 24.9825 4.4375 29.0625 C-1.1875 30.1875 -1.1875 30.1875 -4.5625 29.0625 C-4.58715881 25.09319011 -4.60534023 21.12390966 -4.61743164 17.15454102 C-4.62247057 15.80329614 -4.62930177 14.45205674 -4.63793945 13.10083008 C-4.65002419 11.16229566 -4.65519828 9.223722 -4.66015625 7.28515625 C-4.66539307 6.11734619 -4.67062988 4.94953613 -4.67602539 3.74633789 C-4.50310279 -0.34170118 -4.2325551 0.07425535 0 0 Z " fill="#D9D7D6" transform="translate(245.5625,247.9375)"/>
<path class="logo-path" pathLength="1" d="M0 0 C3.63691799 3.38317952 5.56227435 6.64988944 6.6875 11.5 C6.63289206 16.31329951 5.40402385 19.55828294 2.5 23.375 C-2.35208596 27.0410205 -6.27211676 28.81320302 -12.375 28.4375 C-16.91520093 27.77610502 -19.8814139 26.68600852 -23.3125 23.5 C-26.07003938 19.64447381 -27.33234607 16.65107191 -27.25 11.875 C-25.83473171 6.78003414 -24.62722558 3.55749666 -20.4375 0.1875 C-13.70015598 -3.45066577 -6.92487519 -3.13579254 0 0 Z M-16.3125 8.5 C-17.67886155 9.65866921 -17.67886155 9.65866921 -17.6875 12.8125 C-17.6572603 16.57335383 -17.6572603 16.57335383 -15.1875 19 C-12.39100006 20.75177508 -12.39100006 20.75177508 -9.1875 20.4375 C-5.56364833 19.31910282 -5.56364833 19.31910282 -3.3125 16.5 C-2.77714557 11.83747833 -2.77714557 11.83747833 -4.5 7.625 C-9.20271678 4.70607235 -11.92762555 5.33314623 -16.3125 8.5 Z " fill="#DFDCDC" transform="translate(178.3125,249.5)"/>
<path class="logo-path" pathLength="1" d="M0 0 C7.92 0 15.84 0 24 0 C25 5 25 5 24 8 C18.72 8 13.44 8 8 8 C8 8.99 8 9.98 8 11 C8.99902344 10.98839844 9.99804688 10.97679687 11.02734375 10.96484375 C12.31769531 10.95582031 13.60804688 10.94679688 14.9375 10.9375 C16.22527344 10.92589844 17.51304687 10.91429687 18.83984375 10.90234375 C22 11 22 11 23 12 C23.125 15 23.125 15 23 18 C22 19 22 19 18.83984375 19.09765625 C17.55207031 19.08605469 16.26429688 19.07445312 14.9375 19.0625 C13.64714844 19.05347656 12.35679687 19.04445313 11.02734375 19.03515625 C10.02832031 19.02355469 9.02929688 19.01195312 8 19 C8 19.99 8 20.98 8 22 C9.14339844 21.98839844 10.28679687 21.97679687 11.46484375 21.96484375 C12.95572754 21.95546712 14.44661309 21.94636679 15.9375 21.9375 C16.69224609 21.92912109 17.44699219 21.92074219 18.22460938 21.91210938 C20.14994313 21.90347559 22.07535581 21.94775667 24 22 C25 23 25 23 25.0625 26.0625 C25.041875 27.031875 25.02125 28.00125 25 29 C22.69294708 30.15352646 21.35398201 30.12900617 18.7890625 30.1328125 C17.95632813 30.13410156 17.12359375 30.13539063 16.265625 30.13671875 C14.95851563 30.13091797 14.95851563 30.13091797 13.625 30.125 C12.76132812 30.12886719 11.89765625 30.13273437 11.0078125 30.13671875 C10.1725 30.13542969 9.3371875 30.13414062 8.4765625 30.1328125 C7.71424316 30.13168457 6.95192383 30.13055664 6.16650391 30.12939453 C4 30 4 30 0 29 C0 19.43 0 9.86 0 0 Z " fill="#EBE8E8" transform="translate(285,248)"/>
<path class="logo-path" pathLength="1" d="M0 0 C1.9140625 1.1015625 1.9140625 1.1015625 4.7265625 3.1015625 C4.16284836 6.37110452 3.22693984 7.92732133 0.7265625 10.1015625 C-0.294375 9.6065625 -0.294375 9.6065625 -1.3359375 9.1015625 C-4.92113906 7.88106835 -7.51237689 7.61401761 -11.2734375 8.1015625 C-13.53394753 10.11898332 -13.53394753 10.11898332 -14.2734375 13.1015625 C-13.46055754 16.94335833 -13.46055754 16.94335833 -11.2734375 20.1015625 C-5.39697719 20.56487687 -5.39697719 20.56487687 -0.2734375 18.1015625 C0.3865625 18.4315625 1.0465625 18.7615625 1.7265625 19.1015625 C1.7265625 19.7615625 1.7265625 20.4215625 1.7265625 21.1015625 C2.7165625 21.4315625 3.7065625 21.7615625 4.7265625 22.1015625 C4.6015625 23.9140625 4.6015625 23.9140625 3.7265625 26.1015625 C-1.42003895 29.89379515 -7.14099824 29.81019993 -13.2734375 29.1015625 C-16.9609375 27.6015625 -16.9609375 27.6015625 -19.2734375 26.1015625 C-19.2734375 25.4415625 -19.2734375 24.7815625 -19.2734375 24.1015625 C-19.9334375 24.1015625 -20.5934375 24.1015625 -21.2734375 24.1015625 C-23.75159123 18.55049814 -25.42548814 14.025614 -23.2734375 8.1015625 C-17.9354813 -0.23285377 -9.66802102 -3.82069559 0 0 Z " fill="#DEDCDB" transform="translate(345.2734375,248.8984375)"/>
<path class="logo-path" pathLength="1" d="M0 0 C0.9375 1.875 0.9375 1.875 1 4 C-0.4375 6.25 -0.4375 6.25 -2 8 C-2.515625 7.855625 -3.03125 7.71125 -3.5625 7.5625 C-10.29931248 5.93822796 -10.29931248 5.93822796 -17 7 C-17.51329263 12.617863 -17.51329263 12.617863 -15.3125 17.5625 C-13.11518382 19.24534035 -13.11518382 19.24534035 -10.625 18.8125 C-9.75875 18.544375 -8.8925 18.27625 -8 18 C-2.55211623 16.66582438 -2.55211623 16.66582438 0.375 18.4375 C0.91125 18.953125 1.4475 19.46875 2 20 C0.53090582 23.87306648 -1.33584036 25.17048972 -5 27 C-10.4293549 27.82106048 -16.10947336 27.9104628 -21.0625 25.3125 C-25.21861586 22.04066411 -26.60206237 19.6835823 -27.8125 14.5625 C-28.08135513 9.45425257 -26.99238964 6.40855303 -24.0625 2.25 C-17.98692343 -4.37790171 -7.54457664 -4.53995312 0 0 Z " fill="#E1DFDF" transform="translate(140,250)"/>
<path class="logo-path" pathLength="1" d="M0 0 C1.07507813 -0.00128906 2.15015625 -0.00257813 3.2578125 -0.00390625 C4.38960938 -0.00003906 5.52140625 0.00382813 6.6875 0.0078125 C7.81929688 0.00394531 8.95109375 0.00007812 10.1171875 -0.00390625 C11.19226563 -0.00261719 12.26734375 -0.00132812 13.375 0 C14.86580078 0.00169189 14.86580078 0.00169189 16.38671875 0.00341797 C18.6875 0.1328125 18.6875 0.1328125 19.6875 1.1328125 C19.72842937 3.46578683 19.72991723 5.79986475 19.6875 8.1328125 C17.0475 8.1328125 14.4075 8.1328125 11.6875 8.1328125 C11.69535522 9.07918579 11.69535522 9.07918579 11.70336914 10.04467773 C11.72407826 12.88654597 11.73714066 15.72839838 11.75 18.5703125 C11.75837891 19.56353516 11.76675781 20.55675781 11.77539062 21.58007812 C11.78022461 22.99643555 11.78022461 22.99643555 11.78515625 24.44140625 C11.79301147 25.75322876 11.79301147 25.75322876 11.80102539 27.09155273 C11.6875 29.1328125 11.6875 29.1328125 10.6875 30.1328125 C8.875 30.265625 8.875 30.265625 6.6875 30.2578125 C5.965625 30.26039063 5.24375 30.26296875 4.5 30.265625 C2.6875 30.1328125 2.6875 30.1328125 1.6875 29.1328125 C1.60064397 27.57108505 1.58047781 26.00551906 1.58984375 24.44140625 C1.59306641 23.49716797 1.59628906 22.55292969 1.59960938 21.58007812 C1.60798828 20.58685547 1.61636719 19.59363281 1.625 18.5703125 C1.62951172 17.57322266 1.63402344 16.57613281 1.63867188 15.54882812 C1.65049993 13.07676401 1.66698151 10.60481732 1.6875 8.1328125 C-0.9525 8.1328125 -3.5925 8.1328125 -6.3125 8.1328125 C-6.35491723 5.79986475 -6.35342937 3.46578683 -6.3125 1.1328125 C-4.59682208 -0.58286542 -2.33877265 0.00265425 0 0 Z " fill="#D4D2D1" transform="translate(367.3125,247.8671875)"/>
<path class="logo-path" pathLength="1" d="M0 0 C0.85602572 -0.00085442 1.71205144 -0.00170885 2.59401733 -0.00258917 C5.47300301 -0.00424113 8.3519309 0.0012728 11.23091125 0.00672913 C13.29044086 0.00701108 15.34997057 0.00685309 17.40950012 0.00628662 C23.01039228 0.00599899 28.61126314 0.01189027 34.21215034 0.01886058 C40.06181211 0.02509973 45.91147433 0.02569836 51.76113892 0.02688599 C62.8426999 0.02999764 73.92425105 0.03820881 85.0058077 0.04823548 C97.6199044 0.05940175 110.23400156 0.06490836 122.84810197 0.06993091 C148.80033618 0.08039154 174.75256164 0.09798779 200.70478821 0.12025452 C201.29463196 2.01087952 201.29463196 2.01087952 201.70478821 4.12025452 C200.26728821 5.87025452 200.26728821 5.87025452 198.70478821 7.12025452 C198.37478821 5.47025452 198.04478821 3.82025452 197.70478821 2.12025452 C129.06478821 2.12025452 60.42478821 2.12025452 -10.29521179 2.12025452 C-10.29521179 2.78025452 -10.29521179 3.44025452 -10.29521179 4.12025452 C-9.63521179 4.45025452 -8.97521179 4.78025452 -8.29521179 5.12025452 C-9.62870788 6.4537506 -10.98321493 7.7665605 -12.35771179 9.05775452 C-14.50692348 11.05695927 -14.50692348 11.05695927 -15.29521179 14.12025452 C-15.95521179 13.79025452 -16.61521179 13.46025452 -17.29521179 13.12025452 C-16.37008513 11.13527401 -15.42970942 9.15739434 -14.48271179 7.18275452 C-13.96064148 6.08060608 -13.43857117 4.97845764 -12.90068054 3.84291077 C-9.98157257 -1.10749861 -5.17746453 -0.01874668 0 0 Z " fill="#A6A2A2" transform="translate(182.2952117919922,285.87974548339844)"/>
<path class="logo-path" pathLength="1" d="M0 0 C0.90924225 -0.00175232 1.8184845 -0.00350464 2.75527954 -0.00531006 C5.7667226 -0.00971804 8.7781071 -0.00679377 11.78955078 -0.00341797 C13.88078828 -0.00409143 15.97202571 -0.0050618 18.06326294 -0.00631714 C22.44973495 -0.00779278 26.83618661 -0.00564426 31.22265625 -0.00097656 C36.84392357 0.0047136 42.46514306 0.00144539 48.08640862 -0.00454903 C52.40667073 -0.00816423 56.72692153 -0.0070115 61.04718399 -0.00442123 C63.11962006 -0.00375426 65.19205716 -0.00457238 67.26449203 -0.00690079 C70.16333481 -0.00944223 73.06210046 -0.00556528 75.9609375 0 C77.24535736 -0.00303635 77.24535736 -0.00303635 78.5557251 -0.00613403 C82.54105272 0.00802901 86.21995376 0.13701602 90.10986328 1.12939453 C90.10986328 1.45939453 90.10986328 1.78939453 90.10986328 2.12939453 C56.77986328 2.12939453 23.44986328 2.12939453 -10.89013672 2.12939453 C-10.89013672 2.78939453 -10.89013672 3.44939453 -10.89013672 4.12939453 C-10.23013672 4.45939453 -9.57013672 4.78939453 -8.89013672 5.12939453 C-10.2236328 6.46289062 -11.57813986 7.77570051 -12.95263672 9.06689453 C-15.1018484 11.06609929 -15.1018484 11.06609929 -15.89013672 14.12939453 C-16.55013672 13.79939453 -17.21013672 13.46939453 -17.89013672 13.12939453 C-16.96501006 11.14441403 -16.02463435 9.16653436 -15.07763672 7.19189453 C-14.55556641 6.08974609 -14.03349609 4.98759766 -13.49560547 3.85205078 C-10.49886535 -1.23001215 -5.30901908 -0.01249137 0 0 Z " fill="#B0ABAA" transform="translate(182.89013671875,285.87060546875)"/>
<path class="logo-path" pathLength="1" d="M0 0 C0.33 1.32 0.66 2.64 1 4 C22.12 4 43.24 4 65 4 C64.67 4.66 64.34 5.32 64 6 C42.55 6 21.1 6 -1 6 C-0.67 4.02 -0.34 2.04 0 0 Z " fill="#888585" transform="translate(198,237)"/>
<path class="logo-path" pathLength="1" d="M0 0 C6.6 0 13.2 0 20 0 C21 5 21 5 20 8 C14.72 8 9.44 8 4 8 C4 8.99 4 9.98 4 11 C4.99902344 10.98839844 5.99804688 10.97679687 7.02734375 10.96484375 C8.31769531 10.95582031 9.60804688 10.94679688 10.9375 10.9375 C12.22527344 10.92589844 13.51304687 10.91429687 14.83984375 10.90234375 C18 11 18 11 19 12 C19.125 15 19.125 15 19 18 C18 19 18 19 15.05859375 19.09765625 C13.86363281 19.08605469 12.66867187 19.07445312 11.4375 19.0625 C9.64119141 19.04896484 9.64119141 19.04896484 7.80859375 19.03515625 C6.88175781 19.02355469 5.95492188 19.01195312 5 19 C5 18.67 5 18.34 5 18 C8.96 17.67 12.92 17.34 17 17 C17 15.68 17 14.36 17 13 C10.07 12.505 10.07 12.505 3 12 C3 10.02 3 8.04 3 6 C8.28 6 13.56 6 19 6 C19 4.35 19 2.7 19 1 C12.73 1 6.46 1 0 1 C0 0.67 0 0.34 0 0 Z " fill="#7F7C7A" transform="translate(289,248)"/>
<path class="logo-path" pathLength="1" d="M0 0 C0.9375 1.875 0.9375 1.875 1 4 C-0.4375 6.25 -0.4375 6.25 -2 8 C-2.515625 7.855625 -3.03125 7.71125 -3.5625 7.5625 C-9.80714266 6.05462993 -9.80714266 6.05462993 -16 7 C-16 6.01 -16 5.02 -16 4 C-14.02 4 -12.04 4 -10 4 C-10 2.68 -10 1.36 -10 0 C-13.3 0 -16.6 0 -20 0 C-19.67 -0.66 -19.34 -1.32 -19 -2 C-12.78466575 -3.70921692 -5.59539036 -3.36702921 0 0 Z " fill="#C9C7C6" transform="translate(140,250)"/>
<path class="logo-path" pathLength="1" d="M0 0 C2.64 0 5.28 0 8 0 C8 9.57 8 19.14 8 29 C5.03 29 2.06 29 -1 29 C-1.33 28.01 -1.66 27.02 -2 26 C-1.34 26 -0.68 26 0 26 C0 26.66 0 27.32 0 28 C2.31 28 4.62 28 7 28 C7 19.09 7 10.18 7 1 C5.02 1 3.04 1 1 1 C1 6.61 1 12.22 1 18 C0.34 18 -0.32 18 -1 18 C-1 17.01 -1 16.02 -1 15 C-1.66 15 -2.32 15 -3 15 C-2.690625 14.01 -2.38125 13.02 -2.0625 12 C-0.91566793 8.02268878 -0.43287644 4.11232621 0 0 Z " fill="#AFADAC" transform="translate(218,248)"/>
<path class="logo-path" pathLength="1" d="M0 0 C11.88 0 23.76 0 36 0 C36.495 1.98 36.495 1.98 37 4 C35.5625 5.75 35.5625 5.75 34 7 C33.505 4.525 33.505 4.525 33 2 C32.24904053 2.00523682 31.49808105 2.01047363 30.72436523 2.01586914 C27.29541879 2.03675961 23.86648579 2.04969845 20.4375 2.0625 C19.25607422 2.07087891 18.07464844 2.07925781 16.85742188 2.08789062 C11.13136928 2.10392999 5.63605518 2.0510705 0 1 C0 0.67 0 0.34 0 0 Z " fill="#8F8B8B" transform="translate(347,286)"/>
<path class="logo-path" pathLength="1" d="M0 0 C4.3890815 0.51035831 7.33708062 1.52214277 11 4 C10.43628586 7.26954202 9.50037734 8.82575883 7 11 C4.525 10.01 4.525 10.01 2 9 C2.33 7.02 2.66 5.04 3 3 C2.01 2.67 1.02 2.34 0 2 C0 1.34 0 0.68 0 0 Z " fill="#C8C6C4" transform="translate(339,248)"/>
<path class="logo-path" pathLength="1" d="M0 0 C-1.56245611 3.83511953 -4.10365784 6.10365784 -7 9 C-7.46212891 9.97259766 -7.46212891 9.97259766 -7.93359375 10.96484375 C-9.16345465 13.31194092 -10.48686471 14.43752456 -12.5625 16.0625 C-15.19437653 18.12532214 -15.90432539 18.71297618 -17 22 C-17.66 22 -18.32 22 -19 22 C-19 22.99 -19 23.98 -19 25 C-19.66 25 -20.32 25 -21 25 C-19.39516194 20.33138019 -17.02509806 15.90741833 -14 12 C-13.34 12 -12.68 12 -12 12 C-11.7525 11.42765625 -11.505 10.8553125 -11.25 10.265625 C-9.80683801 7.64989389 -8.11783778 5.85226544 -6 3.75 C-5.29875 3.04359375 -4.5975 2.3371875 -3.875 1.609375 C-2 0 -2 0 0 0 Z " fill="#C8C4C4" transform="translate(243,82)"/>
<path class="logo-path" pathLength="1" d="M0 0 C2.475 0.495 2.475 0.495 5 1 C5 1.99 5 2.98 5 4 C4.34 4 3.68 4 3 4 C1.81304447 7.56086658 1.64904582 10.97331024 1.4375 14.6875 C1.39431641 15.38939453 1.35113281 16.09128906 1.30664062 16.81445312 C1.2008264 18.54275206 1.09993419 20.2713511 1 22 C0.67 22 0.34 22 0 22 C0 14.74 0 7.48 0 0 Z " fill="#F9F6F5" transform="translate(242,249)"/>
<path class="logo-path" pathLength="1" d="M0 0 C1.21152503 2.86360461 1.02923711 3.92528295 -0.125 6.875 C-2.16306418 10.27177363 -4.38551778 13.03220937 -7 16 C-8.65 15.67 -10.3 15.34 -12 15 C-11.67 14.34 -11.34 13.68 -11 13 C-10.01 13 -9.02 13 -8 13 C-8 12.34 -8 11.68 -8 11 C-7.236875 10.443125 -6.47375 9.88625 -5.6875 9.3125 C-2.31438066 6.41004848 -1.51014985 4.13304168 0 0 Z " fill="#AFADAB" transform="translate(323,149)"/>
<path class="logo-path" pathLength="1" d="M0 0 C1.98 0 3.96 0 6 0 C6.04254356 1.99954746 6.04080783 4.00041636 6 6 C5 7 5 7 2.05859375 7.09765625 C0.26615234 7.08025391 0.26615234 7.08025391 -1.5625 7.0625 C-3.35880859 7.04896484 -3.35880859 7.04896484 -5.19140625 7.03515625 C-6.11824219 7.02355469 -7.04507812 7.01195312 -8 7 C-8 6.67 -8 6.34 -8 6 C-2.06 5.505 -2.06 5.505 4 5 C4 3.68 4 2.36 4 1 C2.68 0.67 1.36 0.34 0 0 Z " fill="#8C8B8B" transform="translate(302,260)"/>
<path class="logo-path" pathLength="1" d="M0 0 C1.32 0.33 2.64 0.66 4 1 C3.01 1 2.02 1 1 1 C1 1.66 1 2.32 1 3 C1.66 3.33 2.32 3.66 3 4 C1.66650392 5.33349608 0.31199686 6.64630598 -1.0625 7.9375 C-3.21171168 9.93670475 -3.21171168 9.93670475 -4 13 C-4.66 12.67 -5.32 12.34 -6 12 C-4.02 8.04 -2.04 4.08 0 0 Z " fill="#C4C0C2" transform="translate(171,287)"/>
<path class="logo-path" pathLength="1" d="M0 0 C1 4 1 4 0.0625 6.25 C-0.4634375 7.11625 -0.4634375 7.11625 -1 8 C-0.34 8.33 0.32 8.66 1 9 C-0.32 9.99 -1.64 10.98 -3 12 C-3.66 11.67 -4.32 11.34 -5 11 C-3.35 7.37 -1.7 3.74 0 0 Z " fill="#B6B4B3" transform="translate(119,386)"/>
<path class="logo-path" pathLength="1" d="M0 0 C0.66 0 1.32 0 2 0 C0.77472971 4.05281712 -0.69880494 7.44360764 -3 11 C-4 9 -4 9 -3.0625 5.875 C-2.711875 4.92625 -2.36125 3.9775 -2 3 C-1.34 3 -0.68 3 0 3 C0 2.01 0 1.02 0 0 Z " fill="#B1AEAC" transform="translate(203,349)"/>
<path class="logo-path" pathLength="1" d="M0 0 C-1.44253657 3.36591866 -3.33264727 5.51047079 -6 8 C-6.66 7.34 -7.32 6.68 -8 6 C-7.0479279 4.99403703 -6.08812654 3.99538437 -5.125 3 C-4.59132812 2.443125 -4.05765625 1.88625 -3.5078125 1.3125 C-2 0 -2 0 0 0 Z " fill="#B2AFAF" transform="translate(243,82)"/>
<path class="logo-path" pathLength="1" d="M0 0 C1.48199902 0.44909061 2.96055236 0.90956564 4.4375 1.375 C5.26121094 1.63023438 6.08492188 1.88546875 6.93359375 2.1484375 C9 3 9 3 10 5 C3.9453125 4.609375 3.9453125 4.609375 2 4 C0.7421875 1.953125 0.7421875 1.953125 0 0 Z " fill="#949493" transform="translate(335,73)"/>
</svg>
